Coordinates
version=1
nRows=65
nColumns=12
inDegrees=yes

Units are S.I. units (second, meters, Newtons, ...)
Angles are in degrees

endheader
time	SC_y	SC_z	SC_x	AC_y	AC_z	AC_x	GH_y	GH_z	GH_yy	EL_x	PS_y
       0.0              -56.69          21.34          63.48          55.73         -15.51          16.02         -96.07          86.29          26.09          81.02          131.8
   0.02276              -56.69          21.34          63.48          55.73          -15.5          16.01         -96.04          86.29          26.11          81.01          131.7
   0.04552              -56.68          21.34          63.48          55.73          -15.5          16.01          -96.0          86.29          26.13           81.0          131.7
   0.06827              -56.67          21.33          63.48          55.73          -15.5          16.01         -95.97          86.28          26.15          80.99          131.7
   0.09103              -56.66          21.33          63.48          55.72          -15.5           16.0         -95.93          86.28          26.18          80.98          131.7
    0.1138              -56.66          21.32          63.48          55.72         -15.49           16.0         -95.89          86.28          26.21          80.97          131.7
    0.1365              -56.65          21.32          63.48          55.72         -15.49          15.99         -95.84          86.27          26.23          80.95          131.7
    0.1593              -56.64          21.31          63.48          55.72         -15.48          15.99          -95.8          86.27          26.27          80.94          131.6
    0.1821              -56.63          21.31          63.48          55.71         -15.48          15.98         -95.75          86.26           26.3          80.92          131.6
    0.2048              -56.62           21.3          63.48          55.71         -15.48          15.98         -95.69          86.26          26.33          80.91          131.6
    0.2276               -56.6          21.29          63.48           55.7         -15.47          15.97         -95.63          86.25          26.37          80.89          131.6
    0.2503              -56.59          21.29          63.48           55.7         -15.46          15.96         -95.57          86.25          26.41          80.87          131.5
    0.2731              -56.58          21.28          63.48           55.7         -15.46          15.96          -95.5          86.24          26.46          80.85          131.5
    0.2959              -56.56          21.27          63.48          55.69         -15.45          15.95         -95.43          86.24          26.51          80.82          131.5
    0.3186              -56.55          21.26          63.48          55.69         -15.45          15.94         -95.35          86.23          26.56           80.8          131.4
    0.3414              -56.53          21.25          63.48          55.68         -15.44          15.93         -95.26          86.22          26.61          80.77          131.4
    0.3641              -56.51          21.24          63.48          55.67         -15.43          15.92         -95.17          86.22          26.67          80.74          131.4
    0.3869              -56.49          21.23          63.48          55.67         -15.42          15.91         -95.07          86.21          26.74          80.71          131.3
    0.4096              -56.46          21.21          63.48          55.66         -15.41           15.9         -94.96           86.2          26.81          80.68          131.3
    0.4324              -56.44           21.2          63.48          55.65          -15.4          15.88         -94.83          86.19          26.89          80.64          131.2
    0.4552              -56.41          21.18          63.48          55.64         -15.39          15.87          -94.7          86.18          26.98           80.6          131.2
    0.4779              -56.38          21.17          63.48          55.63         -15.38          15.85         -94.55          86.16          27.08          80.55          131.1
    0.5007              -56.35          21.15          63.48          55.62         -15.36          15.84         -94.39          86.15          27.18           80.5          131.0
    0.5234              -56.31          21.13          63.48          55.61         -15.35          15.82         -94.21          86.14           27.3          80.45          131.0
    0.5462              -56.27           21.1          63.47          55.59         -15.33           15.8         -94.01          86.12          27.43          80.39          130.9
     0.569              -56.22          21.08          63.47          55.58         -15.31          15.77         -93.79           86.1          27.58          80.32          130.8
    0.5917              -56.17          21.05          63.47          55.56         -15.29          15.75         -93.54          86.08          27.74          80.24          130.7
    0.6145              -56.12          21.01          63.47          55.54         -15.27          15.72         -93.26          86.06          27.93          80.15          130.5
    0.6372              -56.05          20.98          63.47          55.52         -15.24          15.68         -92.94          86.03          28.13          80.06          130.4
      0.66              -55.98          20.94          63.47           55.5         -15.21          15.64         -92.58           86.0          28.37          79.94          130.2
    0.6827              -55.89          20.89          63.47          55.47         -15.18           15.6         -92.16          85.96          28.64          79.82          130.1
    0.7055              -55.79          20.83          63.46          55.44         -15.14          15.55         -91.69          85.93          28.95          79.67          129.9
    0.7283              -55.68          20.77          63.46           55.4         -15.09          15.49         -91.14          85.88           29.3           79.5          129.6
     0.751              -55.55          20.69          63.46          55.36         -15.04          15.42         -90.51          85.83          29.72          79.31          129.4
    0.7738               -55.4          20.61          63.46          55.31         -14.97          15.34         -89.77          85.76           30.2          79.08          129.0
    0.7965              -55.22           20.5          63.45          55.25          -14.9          15.25         -88.89          85.69          30.78          78.81          128.7
    0.8193              -55.01          20.38          63.45          55.18         -14.81          15.14         -87.85           85.6          31.46          78.49          128.2
    0.8421              -54.75          20.24          63.44          55.09         -14.71          15.01          -86.6           85.5          32.27           78.1          127.7
    0.8648              -54.44          20.06          63.44          54.99         -14.58          14.84          -85.1          85.37          33.26          77.64          127.0
    0.8876              -54.06          19.84          63.43          54.86         -14.42          14.65         -83.25          85.22          34.46          77.07          126.2
    0.9103               -53.6          19.58          63.42          54.71         -14.23           14.4         -80.98          85.03          35.95          76.37          125.2
    0.9331              -53.01          19.24          63.41          54.52         -13.99           14.1         -78.14          84.79           37.8          75.49          124.0
    0.9558              -52.28          18.82          63.39          54.27         -13.69          13.72         -74.57          84.49          40.13          74.39          122.4
    0.9786              -51.35          18.29          63.37          53.97          -13.3          13.23         -70.03          84.12           43.1          72.99          120.5
     1.001              -50.15          17.61          63.35          53.57         -12.81          12.61         -64.21          83.63           46.9           71.2          118.0
     1.024              -48.62          16.73          63.32          53.06         -12.18          11.82         -56.75          83.01          51.77          68.89          114.7
     1.047              -46.67          15.62          63.28          52.42         -11.37           10.8         -47.22          82.21           58.0          65.96          110.6
      1.07              -44.21          14.21          63.23           51.6         -10.36          9.517         -35.24          81.21          65.83          62.26          105.4
     1.092              -41.21           12.5          63.17          50.61         -9.121          7.957         -20.63          79.99          75.37          57.76          99.09
     1.115              -37.73          10.52          63.09          49.46         -7.687          6.149         -3.704          78.58          86.43          52.53          91.76
     1.138              -33.97          8.367          63.02          48.22         -6.136           4.19          14.63          77.04           98.4          46.88          83.82
     1.161              -30.21          6.218          62.94          46.97         -4.584          2.232          32.95          75.51          110.4          41.23          75.88
     1.183              -26.73          4.233          62.87          45.82         -3.151         0.4239          49.88           74.1          121.4          36.01          68.55
     1.206              -23.74          2.521          62.81          44.83         -1.915         -1.136          64.49          72.88          131.0           31.5          62.23
     1.229              -21.28          1.116          62.76          44.02           -0.9         -2.416          76.47          71.88          138.8          27.81          57.04
     1.252              -19.32      -0.001248          62.72          43.37       -0.09313         -3.435           86.0          71.08          145.0          24.87          52.91
     1.274              -17.79         -0.876          62.68          42.86         0.5385         -4.232          93.46          70.46          149.9          22.57          49.68
     1.297               -16.6         -1.558          62.66          42.47          1.031         -4.853          99.28          69.97          153.7          20.77          47.16
      1.32              -15.66          -2.09          62.64          42.16          1.415         -5.338          103.8          69.59          156.7          19.37          45.19
     1.343              -14.93         -2.509          62.63          41.92          1.718          -5.72          107.4          69.29          159.0          18.27          43.65
     1.365              -14.35         -2.842          62.61          41.72          1.958         -6.023          110.2          69.06          160.9           17.4          42.42
     1.388              -13.88         -3.108           62.6          41.57          2.151         -6.266          112.5          68.87          162.3          16.69          41.43
     1.411               -13.5         -3.325           62.6          41.44          2.307         -6.463          114.3          68.71          163.5          16.13          40.63
     1.434              -13.19         -3.501          62.59          41.34          2.434         -6.624          115.9          68.59          164.5          15.66          39.98
     1.457              -12.94         -3.648          62.58          41.26           2.54         -6.757          117.1          68.48          165.3          15.28          39.44
